2.2Hzlow3min_grf.mot
version=1
nRows=27
nColumns 19
inDegrees=yes
endheader
time	1_ground_force_vx	1_ground_force_vy	1_ground_force_vz	1_ground_force_px	1_ground_force_py	1_ground_force_pz	1_ground_torque_x	1_ground_torque_y	1_ground_torque_z	2_ground_force_vx	2_ground_force_vy	2_ground_force_vz	2_ground_force_px	2_ground_force_py	2_ground_force_pz	2_ground_torque_x	2_ground_torque_y	2_ground_torque_z
            1.253500	           26.429727	          280.706918	           -5.419655	           -0.268245	            0.006262	           -0.415993	            0.022885	            0.243064	           -0.004693	           25.582375	          298.762087	            7.436634	           -0.298096	            0.005154	           -0.626766	           -0.012047	           -0.140690	           -0.003502
            1.254000	           24.086034	          285.762163	           -7.318158	           -0.268071	            0.006263	           -0.416096	           -0.004737	           -0.056206	            0.001439	           23.963558	          305.938128	            7.462937	           -0.297733	            0.005160	           -0.627887	            0.003109	            0.039689	            0.000968
            1.254500	           21.196578	          291.891031	           -7.376421	           -0.267267	            0.006264	           -0.416428	           -0.014815	           -0.204017	            0.005156	           22.120274	          310.352596	            7.057131	           -0.297490	            0.005158	           -0.627037	            0.028949	            0.406160	            0.009236
            1.255000	           19.182158	          297.832890	           -5.832663	           -0.267249	            0.006260	           -0.415494	           -0.010597	           -0.164529	            0.003222	           21.164585	          315.506005	            6.888214	           -0.297395	            0.005156	           -0.626541	            0.047327	            0.705516	            0.015403
            1.255500	           18.360488	          302.331932	           -4.068766	           -0.268528	            0.006260	           -0.415428	           -0.001060	           -0.017462	            0.000235	           20.862403	          321.396230	            7.331713	           -0.297382	            0.005157	           -0.626640	            0.052230	            0.804637	            0.018355
            1.256000	           19.416084	          308.817571	           -3.080582	           -0.267820	            0.006260	           -0.415535	            0.010257	            0.163142	           -0.001627	           21.778044	          327.471814	            8.666984	           -0.297719	            0.005157	           -0.627087	            0.037316	            0.561116	            0.014851
            1.256500	           20.787376	          315.132020	           -4.203339	           -0.267535	            0.006263	           -0.416199	            0.019591	            0.297002	           -0.003962	           22.646234	          333.730929	           10.143717	           -0.297318	            0.005160	           -0.627653	            0.015800	            0.232835	            0.007077
            1.257000	           20.368317	          321.270214	           -6.331262	           -0.268174	            0.006261	           -0.415607	            0.007680	            0.121133	           -0.002387	           23.136278	          340.909500	           11.576966	           -0.297411	            0.005163	           -0.628594	           -0.007684	           -0.113221	           -0.003845
            1.257500	           19.031849	          327.949844	           -8.638015	           -0.268724	            0.006256	           -0.414647	            0.007190	            0.123893	           -0.003263	           22.411907	          346.981400	           12.302869	           -0.297415	            0.005163	           -0.628545	           -0.003489	           -0.054018	           -0.001915
            1.258000	           15.910220	          332.822283	           -9.985085	           -0.267819	            0.006258	           -0.415037	            0.004576	            0.095728	           -0.002872	           21.264872	          353.238702	           12.231831	           -0.297301	            0.005163	           -0.628242	            0.015218	            0.252796	            0.008754
            1.258500	           12.700057	          340.392428	           -9.852945	           -0.267577	            0.006257	           -0.414679	           -0.000465	           -0.012463	            0.000361	           19.924996	          360.969519	           11.884561	           -0.297037	            0.005164	           -0.628465	            0.037898	            0.686569	            0.022605
            1.259000	           10.271552	          347.057690	           -8.855341	           -0.268096	            0.006254	           -0.414043	           -0.004382	           -0.148053	            0.003778	           19.574510	          367.228861	           12.047825	           -0.297075	            0.005164	           -0.628358	            0.046107	            0.864989	            0.028378
            1.259500	            9.950378	          353.545620	           -8.459870	           -0.268302	            0.006255	           -0.414322	           -0.006085	           -0.216220	            0.005174	           20.109103	          374.962656	           12.779104	           -0.297136	            0.005164	           -0.628506	            0.038391	            0.715847	            0.024397
            1.260000	           11.048203	          361.118760	           -8.842840	           -0.268223	            0.006257	           -0.414826	           -0.006603	           -0.215828	            0.005285	           20.785967	          382.325435	           14.400643	           -0.297147	            0.005167	           -0.629212	            0.022180	            0.407958	            0.015366
            1.260500	           11.638630	          369.598212	          -10.412947	           -0.267960	            0.006256	           -0.414589	           -0.003389	           -0.107636	            0.003033	           21.278855	          388.765937	           16.253617	           -0.297348	            0.005165	           -0.628934	            0.002306	            0.042135	            0.001762
            1.261000	           11.357474	          376.817044	          -12.307294	           -0.268459	            0.006255	           -0.414177	            0.002519	            0.083587	           -0.002730	           21.436840	          397.049294	           17.409379	           -0.297359	            0.005167	           -0.629431	           -0.001112	           -0.020599	           -0.000903
            1.261500	            9.608936	          384.396713	          -14.334022	           -0.268381	            0.006254	           -0.414140	            0.006859	            0.274391	           -0.010232	           20.426635	          404.409834	           17.952289	           -0.297042	            0.005167	           -0.629301	            0.014215	            0.281428	            0.012493
            1.262000	            6.670364	          392.873971	          -15.528521	           -0.268095	            0.006256	           -0.414434	            0.003692	            0.217424	           -0.008594	           19.228157	          411.955511	           18.026655	           -0.297120	            0.005166	           -0.628998	            0.027782	            0.595229	            0.026046
            1.262500	            4.056433	          402.065609	          -15.161623	           -0.268027	            0.006252	           -0.413659	           -0.000488	           -0.048410	            0.001826	           18.306753	          420.607443	           18.010987	           -0.296885	            0.005168	           -0.629430	            0.038213	            0.877957	            0.037595
            1.263000	            2.358777	          410.717837	          -15.074455	           -0.268383	            0.006251	           -0.413469	           -0.002545	           -0.443118	            0.016264	           18.044835	          428.338804	           18.601820	           -0.297166	            0.005168	           -0.629530	            0.034560	            0.820370	            0.035627
            1.263500	            2.769215	          419.371652	          -15.267656	           -0.268394	            0.006253	           -0.413716	           -0.003717	           -0.562950	            0.020495	           18.206725	          435.517925	           19.565928	           -0.297069	            0.005167	           -0.629299	            0.023708	            0.567102	            0.025477
            1.264000	            4.093338	          429.833216	          -16.601802	           -0.268444	            0.006253	           -0.413833	           -0.003320	           -0.348600	            0.013464	           18.784717	          444.352382	           21.521260	           -0.297106	            0.005169	           -0.629764	            0.009411	            0.222605	            0.010781
            1.264500	            5.509313	          438.132003	          -18.037162	           -0.268593	            0.006254	           -0.414087	            0.000436	            0.034674	           -0.001427	           18.612319	          453.369276	           23.195999	           -0.296975	            0.005172	           -0.630512	            0.007066	            0.172118	            0.008806
            1.265000	            5.457544	          448.774581	          -19.596400	           -0.268635	            0.006251	           -0.413259	            0.005921	            0.486917	           -0.021262	           18.258219	          460.730510	           24.207911	           -0.297015	            0.005169	           -0.629796	            0.010826	            0.273187	            0.014354
            1.265500	            3.574368	          457.971079	          -20.331865	           -0.268522	            0.006252	           -0.413521	            0.003195	            0.409366	           -0.018174	           17.047462	          471.772138	           25.092539	           -0.296486	            0.005175	           -0.631005	            0.019836	            0.548956	            0.029198
            1.266000	            1.554134	          467.707395	          -20.835389	           -0.268443	            0.006251	           -0.413448	            0.000539	            0.162339	           -0.007232	           15.616025	          478.949023	           25.071834	           -0.296575	            0.005174	           -0.630769	            0.027697	            0.849491	            0.044469
            1.266500	           -0.326897	          477.621085	          -20.650644	           -0.268529	            0.006250	           -0.413015	            0.000266	           -0.387992	            0.016775	           14.698855	          486.494041	           25.615361	           -0.296786	            0.005172	           -0.630248	            0.027994	            0.926526	            0.048784
